<svg xmlns="http://www.w3.org/2000/svg" xmlns:xlink="http://www.w3.org/1999/xlink" viewBox="0 0 1080 1080"><defs><linearGradient id="a" x1="-34.89" y1="137.46" x2="1114.89" y2="942.54" gradientUnits="userSpaceOnUse"><stop offset="0" stop-color="#ea00fb"/><stop offset="1" stop-color="#090979"/></linearGradient></defs><title>icon</title><rect width="1080" height="1080" rx="128" fill="url(#a)"/><circle cx="476.7" cy="646" r="35.3" fill="#fff"/><path d="M780.3,461.2V327.1C780.3,194.8,673.3,87,540.2,87S300.1,194.8,300.1,327.1V461.2l-68,6.3V965.8L540.2,993l308-27.2V467.5ZM682.4,838.1c0,8.1-5.4,14.5-14.5,14.5H630.8c-4.6,0-7.3-1.8-10-4.6l-10-9.9V810H582.7V781.9h-28l-20.9-20.8c-10.8,4.5-23.5,6.3-36.2,6.3a99.7,99.7,0,1,1,99.6-99.7c0,12.7-2.7,24.5-6.3,36.3l87.9,87.9c2.7,2.7,4.5,5.4,4.5,9.9v36.3Zm25.4-383.3L540.2,440.3,372.6,454.8V327.1c0-92.4,75.2-167.6,167.6-167.6s167.6,75.2,167.6,167.6Z" fill="#fff"/></svg>