<?xml version="1.0" encoding="utf-8"?>
<!-- Generator: Adobe Illustrator 24.0.0, SVG Export Plug-In . SVG Version: 6.00 Build 0)  -->
<svg version="1.1" id="Capa_1" xmlns="http://www.w3.org/2000/svg" xmlns:xlink="http://www.w3.org/1999/xlink" x="0px" y="0px"
	 viewBox="0 0 100.1 100" style="enable-background:new 0 0 100.1 100;" xml:space="preserve">
<g>
	<circle fill="#fff" cx="43" cy="61.7" r="3.9"/>
	<path fill="#fff" d="M76.5,41.3V26.5C76.5,11.9,64.7,0,50,0S23.5,11.9,23.5,26.5v14.8L16,42v55l34,3l34-3V42L76.5,41.3z M65.7,82.9
		c0,0.9-0.6,1.6-1.6,1.6h-4.1c-0.5,0-0.8-0.2-1.1-0.5l-1.1-1.1v-3.1h-3.1v-3.1h-3.1l-2.3-2.3c-1.2,0.5-2.6,0.7-4,0.7
		c-6.1,0-11-4.9-11-11s4.9-11,11-11s11,4.9,11,11c0,1.4-0.3,2.7-0.7,4l9.7,9.7c0.3,0.3,0.5,0.6,0.5,1.1V82.9z M68.5,40.6L50,39
		l-18.5,1.6V26.5C31.5,16.3,39.8,8,50,8s18.5,8.3,18.5,18.5V40.6z"/>
</g>
</svg>
